<?xml version="1.0" encoding="UTF-8"?><svg id="a" xmlns="http://www.w3.org/2000/svg" viewBox="0 0 920.84 176.8"><defs><style>.b{fill:#fff;}.c{fill:none;}</style></defs><path class="c" d="M7.07,55.93V120.87c0,26.94,21.92,48.86,48.86,48.86h502.27V7.07H55.93C28.99,7.07,7.07,28.99,7.07,55.93Zm441.94-16.28c0-2.94,.88-3.82,3.82-3.82h66.77c2.94,0,3.82,.88,3.82,3.82v16.62c0,2.94-.88,3.82-3.82,3.82h-19.56v77.06c0,2.94-.88,3.82-3.82,3.82h-20c-2.94,0-3.82-.88-3.82-3.82V60.09h-19.56c-2.94,0-3.82-.88-3.82-3.82v-16.62Zm-90.15,0c0-2.94,.88-3.82,3.82-3.82h58.97c14.12,0,18.82,7.79,18.82,17.5v32.5c0,9.71-4.71,17.36-18.82,17.36h-.59l23.97,34.71c1.62,2.2,1.03,3.09-1.62,3.09h-24.27c-3.09,0-4.26-.59-5.88-3.24l-22.79-34.56h-3.97v33.97c0,2.94-.88,3.82-3.82,3.82h-20c-2.94,0-3.82-.88-3.82-3.82V39.65Zm-105.89,97.65l33.53-97.8c.88-2.94,1.91-3.68,5-3.68h18.24c3.09,0,4.12,.73,5.15,3.68l33.83,97.8c1.03,2.79,.44,3.68-2.5,3.68h-20.88c-3.09,0-4.12-.73-5-3.68l-4.27-13.09h-32.35l-4.27,13.09c-.88,2.94-1.91,3.68-5,3.68h-18.82c-2.94,0-3.53-.88-2.65-3.68ZM136.63,39.65c0-2.94,.88-3.82,3.82-3.82h19.41c3.09,0,4.12,.59,5.59,3.38l24.56,46.92,25.3-46.92c1.47-2.79,2.5-3.38,5.59-3.38h18.09c2.94,0,3.82,.88,3.82,3.82v97.5c0,2.94-.88,3.82-3.82,3.82h-19.12c-2.94,0-3.82-.88-3.82-3.82v-48.09h-.15l-19.56,34.71c-1.62,2.79-2.65,3.38-5.74,3.38h-3.24c-3.09,0-4.12-.59-5.59-3.38l-18.24-34.71h-.15v48.09c0,2.94-.88,3.82-3.82,3.82h-19.12c-3.09,0-3.82-.73-3.82-3.82V39.65Zm-35.44-3.82c14.12,0,18.82,7.79,18.82,17.5v5.88c0,3.09-.73,3.97-3.82,4.56l-19.41,3.82c-2.94,.59-3.82-.15-3.82-3.09,0-2.2-2.21-4.41-4.85-4.41h-15.15c-2.65,0-4.85,2.21-4.85,4.86v2.5c0,5.3,1.91,6.62,7.06,6.91l26.91,1.18c14.12,.59,18.82,7.94,18.82,17.65v30.3c0,9.71-4.71,17.5-18.82,17.5H56.33c-14.12,0-18.82-7.79-18.82-17.5v-6.76c0-3.09,.74-3.97,3.82-4.56l19.41-3.82c2.94-.59,3.82,.15,3.82,3.09v.44c0,2.65,2.21,4.85,4.85,4.85h18.82c2.65,0,4.85-2.21,4.85-4.85v-4.56c0-5-1.62-6.32-7.06-6.62l-26.77-1.18c-14.12-.59-18.82-7.8-18.82-17.5v-28.68c0-9.71,4.71-17.5,18.82-17.5h41.91Z"/><polygon class="c" points="303.11 83.03 300.02 72.59 299.88 72.59 296.79 83.03 291.49 100.24 308.26 100.24 303.11 83.03"/><path class="c" d="M412.83,74.06v-9.12c0-2.65-2.21-4.86-4.85-4.86h-21.47v18.82h21.47c2.65,0,4.85-2.2,4.85-4.85Z"/><path class="b" d="M840.28,60.09h-11.91v56.62h11.91c13.24,0,16.77-10,16.77-17.21v-22.21c0-7.21-3.53-17.21-16.77-17.21Z"/><path class="b" d="M864.91,0H55.93C25.04,0,0,25.04,0,55.93V120.87c0,30.89,25.04,55.93,55.93,55.93H864.91c30.89,0,55.93-25.04,55.93-55.93V55.93c0-30.89-25.04-55.93-55.93-55.93Zm-306.71,169.73H55.93c-26.94,0-48.86-21.92-48.86-48.86V55.93C7.07,28.99,28.99,7.07,55.93,7.07h502.27V169.73Zm123.39-32.57c0,2.94-.88,3.82-3.82,3.82h-20c-2.94,0-3.82-.88-3.82-3.82v-37.65h-31.47v37.65c0,2.94-.88,3.82-3.82,3.82h-20c-2.94,0-3.82-.88-3.82-3.82V39.65c0-2.94,.88-3.82,3.82-3.82h20c2.94,0,3.82,.88,3.82,3.82v35.88h31.47V39.65c0-2.94,.88-3.82,3.82-3.82h20c2.94,0,3.82,.88,3.82,3.82v97.5Zm101.48-13.68c0,9.71-4.56,17.5-18.68,17.5h-46.32c-14.12,0-18.82-7.79-18.82-17.5V39.65c0-2.94,.88-3.82,3.82-3.82h20c2.94,0,3.82,.88,3.82,3.82V116.27h28.53V39.65c0-2.94,.88-3.82,3.82-3.82h20c2.94,0,3.82,.88,3.82,3.82V123.47Zm101.63-19.41c0,26.18-16.03,36.91-35.88,36.91h-44.27c-2.94,0-3.82-.88-3.82-3.82V39.65c0-2.94,.88-3.82,3.82-3.82h44.27c19.86,0,35.88,10.74,35.88,36.91v31.32Z"/><path class="b" d="M40.45,53.32v28.68c0,9.7,4.71,16.91,18.82,17.5l26.77,1.18c5.44,.29,7.06,1.62,7.06,6.62v4.56c0,2.65-2.21,4.85-4.85,4.85h-18.82c-2.65,0-4.85-2.21-4.85-4.85v-.44c0-2.94-.88-3.68-3.82-3.09l-19.41,3.82c-3.09,.59-3.82,1.47-3.82,4.56v6.76c0,9.71,4.71,17.5,18.82,17.5h45.74c14.12,0,18.82-7.79,18.82-17.5v-30.3c0-9.71-4.71-17.06-18.82-17.65l-26.91-1.18c-5.15-.29-7.06-1.62-7.06-6.91v-2.5c0-2.65,2.21-4.86,4.85-4.86h15.15c2.65,0,4.85,2.21,4.85,4.41,0,2.94,.88,3.68,3.82,3.09l19.41-3.82c3.09-.59,3.82-1.47,3.82-4.56v-5.88c0-9.71-4.71-17.5-18.82-17.5H59.27c-14.12,0-18.82,7.79-18.82,17.5Z"/><path class="b" d="M140.45,140.98h19.12c2.94,0,3.82-.88,3.82-3.82v-48.09h.15l18.24,34.71c1.47,2.79,2.5,3.38,5.59,3.38h3.24c3.09,0,4.12-.59,5.74-3.38l19.56-34.71h.15v48.09c0,2.94,.88,3.82,3.82,3.82h19.12c2.94,0,3.82-.88,3.82-3.82V39.65c0-2.94-.88-3.82-3.82-3.82h-18.09c-3.09,0-4.12,.59-5.59,3.38l-25.3,46.92-24.56-46.92c-1.47-2.79-2.5-3.38-5.59-3.38h-19.41c-2.94,0-3.82,.88-3.82,3.82v97.5c0,3.09,.74,3.82,3.82,3.82Z"/><path class="b" d="M255.61,140.98h18.82c3.09,0,4.12-.73,5-3.68l4.27-13.09h32.35l4.27,13.09c.88,2.94,1.91,3.68,5,3.68h20.88c2.94,0,3.53-.88,2.5-3.68l-33.83-97.8c-1.03-2.94-2.06-3.68-5.15-3.68h-18.24c-3.09,0-4.12,.73-5,3.68l-33.53,97.8c-.88,2.79-.29,3.68,2.65,3.68Zm41.18-57.94l3.09-10.44h.15l3.09,10.44,5.15,17.21h-16.77l5.29-17.21Z"/><path class="b" d="M362.68,140.98h20c2.94,0,3.82-.88,3.82-3.82v-33.97h3.97l22.79,34.56c1.62,2.65,2.79,3.24,5.88,3.24h24.27c2.65,0,3.24-.88,1.62-3.09l-23.97-34.71h.59c14.12,0,18.82-7.65,18.82-17.36V53.32c0-9.71-4.71-17.5-18.82-17.5h-58.97c-2.94,0-3.82,.88-3.82,3.82v97.5c0,2.94,.88,3.82,3.82,3.82Zm23.82-80.89h21.47c2.65,0,4.85,2.21,4.85,4.86v9.12c0,2.65-2.21,4.85-4.85,4.85h-21.47v-18.82Z"/><path class="b" d="M452.83,60.09h19.56v77.06c0,2.94,.88,3.82,3.82,3.82h20c2.94,0,3.82-.88,3.82-3.82V60.09h19.56c2.94,0,3.82-.88,3.82-3.82v-16.62c0-2.94-.88-3.82-3.82-3.82h-66.77c-2.94,0-3.82,.88-3.82,3.82v16.62c0,2.94,.88,3.82,3.82,3.82Z"/></svg>